<?xml version="1.0" standalone="no"?>
<!DOCTYPE svg PUBLIC "-//W3C//DTD SVG 20010904//EN"
 "http://www.w3.org/TR/2001/REC-SVG-20010904/DTD/svg10.dtd">
<svg version="1.0" xmlns="http://www.w3.org/2000/svg"
 width="626.000000pt" height="447.000000pt" viewBox="0 0 626.000000 447.000000"
 preserveAspectRatio="xMidYMid meet">

<g transform="translate(0.000000,447.000000) scale(0.100000,-0.100000)"
fill="#000000" stroke="none">
<path d="M130 4438 c43 -66 81 -158 87 -212 15 -143 -95 -237 -186 -160 l-31
26 0 -291 0 -290 52 -34 c69 -44 155 -138 195 -213 30 -56 80 -211 71 -220 -3
-2 -19 18 -37 46 -54 83 -163 165 -258 194 -23 7 -23 6 -23 -73 0 -70 2 -81
18 -81 30 0 119 -47 162 -86 39 -36 100 -114 100 -130 0 -4 -28 -4 -63 -2 -52
4 -108 22 -204 65 -10 4 -13 -15 -13 -75 l0 -81 45 -7 c83 -12 226 0 275 24
85 40 82 32 70 183 -17 223 -75 381 -194 527 -141 174 -164 254 -94 329 63 67
141 46 195 -52 50 -91 103 -271 143 -485 l17 -95 12 42 c22 78 83 218 129 295
89 151 225 273 355 318 85 30 130 26 223 -19 43 -21 101 -42 127 -46 26 -4 47
-9 47 -11 0 -2 -12 -23 -27 -47 l-26 -44 -31 18 c-125 73 -318 27 -470 -112
-151 -138 -247 -347 -277 -600 -11 -98 -7 -293 7 -346 6 -21 8 -21 58 16 172
129 381 194 627 194 182 -1 272 -31 327 -113 48 -70 4 -160 -84 -174 -43 -7
-85 3 -244 60 -93 33 -118 38 -220 42 -166 6 -250 -18 -383 -111 -85 -59 -171
-182 -211 -302 -6 -18 -9 -17 -38 14 -39 42 -84 61 -144 61 -43 0 -46 1 -33
18 8 11 44 59 82 108 61 81 135 213 152 274 8 24 7 24 -16 7 -98 -70 -250
-134 -362 -152 l-37 -6 0 -59 c0 -33 3 -60 8 -60 15 0 129 38 176 59 27 12 50
20 52 18 7 -7 -133 -118 -182 -144 l-54 -28 0 -394 0 -394 36 -49 c37 -53 39
-67 6 -49 -32 17 -42 13 -42 -16 1 -25 9 -32 78 -65 42 -20 110 -62 151 -93
61 -47 73 -52 67 -33 -37 136 -33 352 8 491 87 293 319 544 459 498 87 -29
116 -128 57 -194 -16 -19 -67 -56 -113 -81 -142 -80 -235 -186 -282 -322 -61
-177 -60 -356 6 -569 30 -96 99 -244 138 -294 l19 -24 6 74 c25 265 85 417
227 575 144 159 163 231 108 410 -53 172 -43 234 44 277 31 16 42 17 72 7 19
-6 46 -26 60 -44 80 -105 41 -316 -105 -576 -32 -58 -57 -106 -55 -108 1 -2
48 16 104 38 142 57 239 80 366 87 227 11 412 -55 482 -174 46 -80 16 -169
-63 -189 -42 -11 -100 14 -165 69 -132 112 -187 137 -325 144 -180 11 -336
-48 -460 -171 -55 -55 -75 -83 -89 -125 -24 -73 -13 -150 32 -232 2 -3 -17
-12 -43 -19 -135 -38 -165 -169 -94 -410 37 -126 48 -246 30 -348 -6 -39 -15
-72 -19 -72 -3 0 -15 17 -26 38 -11 20 -52 69 -91 107 -110 110 -243 170 -444
200 -143 22 -140 23 -140 -28 l0 -43 85 -12 c222 -32 424 -142 486 -264 l20
-39 182 3 c173 4 185 5 245 31 132 59 258 57 323 -4 l31 -29 234 0 234 0 -6
27 c-12 46 -9 196 4 235 7 20 29 51 48 68 59 51 140 35 163 -32 16 -46 14 -66
-19 -173 -16 -54 -30 -104 -30 -111 0 -12 41 -14 226 -14 124 0 224 3 222 8
-56 108 -67 184 -35 233 23 34 67 53 106 44 57 -12 93 -71 144 -235 l14 -45
60 -3 61 -3 -19 72 c-31 120 -24 187 28 241 67 70 173 27 173 -69 0 -15 -7
-53 -15 -83 -8 -30 -15 -79 -15 -107 l0 -53 44 0 c43 0 43 0 50 41 21 132 167
132 334 -1 52 -40 53 -41 125 -38 l72 3 -99 100 c-55 55 -108 114 -118 130
-44 73 -2 165 77 165 106 0 198 -110 231 -278 8 -42 17 -87 20 -100 3 -17 11
-22 37 -22 l33 0 18 89 c41 203 156 351 272 351 35 0 47 -5 68 -31 16 -18 26
-43 26 -61 0 -33 -26 -61 -196 -214 -43 -39 -87 -86 -97 -103 l-18 -31 68 0
c67 0 70 1 107 39 103 106 332 153 435 90 36 -22 65 -80 56 -110 -6 -18 0 -19
101 -19 l108 0 -30 31 c-24 26 -29 38 -29 83 0 46 7 63 53 138 29 48 61 112
72 144 24 67 26 171 5 229 -8 21 -13 41 -11 43 2 1 20 -16 39 -39 50 -58 113
-183 127 -253 24 -117 -14 -250 -92 -329 l-48 -48 98 3 97 3 27 50 c15 28 35
81 44 119 14 57 18 65 27 50 17 -30 37 -125 37 -176 l0 -48 60 0 c70 0 63 -16
85 185 16 135 13 231 -6 283 -5 12 -5 22 0 22 13 0 128 -260 151 -341 11 -40
20 -91 20 -112 l0 -38 68 3 67 3 3 32 c4 41 -42 176 -78 230 -16 24 -27 43
-24 43 2 0 28 -12 56 -26 96 -49 187 -152 217 -247 l13 -37 58 0 59 0 -19 54
c-39 113 -108 191 -261 296 -77 52 -140 99 -202 150 -4 4 13 7 38 6 56 -1 79
21 90 85 8 47 15 43 40 -25 23 -63 87 -133 145 -159 56 -25 144 -25 202 1 24
10 75 42 114 71 55 40 85 54 130 62 112 20 109 18 112 79 2 30 1 69 -3 86 -5
30 -8 31 -78 44 -94 16 -127 31 -160 69 -42 50 -38 103 11 151 44 44 102 58
177 42 53 -11 58 -7 53 54 l-3 39 -97 -1 c-87 0 -103 -3 -155 -30 -84 -43
-117 -93 -121 -190 l-4 -74 -30 0 c-86 0 -176 -99 -153 -169 9 -30 26 -26 66
15 62 66 141 83 184 40 34 -34 40 -68 20 -110 -41 -85 -179 -119 -262 -64 -61
40 -78 84 -78 203 0 97 1 103 41 185 26 54 62 108 98 147 109 118 212 163 386
168 l105 4 3 42 c4 56 -4 85 -25 94 -10 3 -95 24 -188 44 -199 45 -285 82
-360 156 -120 118 -125 247 -11 290 43 16 46 16 83 -1 26 -13 53 -41 85 -89
71 -104 135 -157 273 -226 67 -32 126 -59 133 -59 16 0 15 42 0 62 -7 8 -41
32 -75 52 -165 98 -231 233 -188 382 29 103 87 176 206 265 64 47 69 53 69 89
0 63 -5 69 -48 55 -56 -20 -228 -37 -286 -30 -148 19 -261 69 -342 149 -65 66
-83 115 -61 169 27 62 105 95 160 65 12 -6 54 -41 93 -78 120 -111 230 -156
399 -162 l80 -3 3 34 c2 19 1 44 -2 57 -6 22 -12 24 -69 24 -191 0 -318 102
-262 210 18 34 62 60 102 60 15 0 72 -15 125 -34 54 -18 100 -31 103 -28 7 7
6 102 -1 129 -7 26 -16 30 -99 43 -51 8 -80 7 -137 -5 -40 -8 -74 -15 -75 -15
-6 0 43 100 63 127 43 57 138 76 232 48 21 -7 22 -5 22 46 0 107 2 105 -190
118 -131 9 -182 27 -211 75 -25 41 -24 76 4 117 35 52 68 64 177 63 70 0 110
-6 151 -21 l57 -21 6 37 c9 55 7 334 -3 350 -16 25 -44 -85 -38 -151 l5 -59
-41 44 c-23 24 -62 59 -86 79 l-44 36 44 19 c58 26 103 65 119 103 10 24 15
28 26 19 23 -19 26 10 22 178 -3 153 -4 160 -35 226 l-32 67 -67 0 c-59 0 -65
-2 -58 -17 29 -68 57 -170 67 -244 13 -105 1 -157 -48 -206 -37 -37 -69 -42
-114 -18 -49 25 -64 74 -72 235 -4 80 -12 169 -19 198 l-12 52 -59 0 -59 0 10
-26 c6 -14 10 -65 10 -113 0 -102 -24 -162 -79 -198 -77 -51 -161 -5 -161 89
0 18 9 75 21 125 12 51 19 99 15 108 -4 11 -21 15 -71 15 l-65 0 0 -37 c-1
-79 -59 -159 -112 -151 -33 5 -68 63 -68 114 0 69 -5 74 -70 74 l-57 0 -6 -56
c-15 -150 -160 -323 -270 -324 -67 0 -116 57 -103 122 9 44 45 88 136 164 43
36 81 72 84 80 5 12 -33 14 -234 14 -192 0 -240 -3 -240 -13 0 -22 -56 -68
-94 -77 -19 -4 -74 -4 -121 2 -120 13 -177 -4 -248 -75 -60 -60 -99 -135 -129
-245 -18 -66 -21 -106 -22 -282 0 -113 2 -263 4 -335 5 -129 5 -131 -26 -195
-52 -111 -120 -173 -236 -215 -34 -12 -64 -27 -66 -33 -5 -16 60 -25 131 -20
83 7 151 41 217 108 95 96 137 195 175 410 18 108 45 164 94 197 40 27 61 29
106 7 41 -19 65 -67 65 -128 0 -54 -50 -216 -93 -301 -130 -259 -364 -415
-604 -403 l-73 3 -2 -30 c-3 -68 4 -154 19 -215 35 -152 164 -352 293 -456 33
-27 60 -52 60 -56 0 -12 -69 -21 -116 -14 -126 17 -231 130 -300 322 -44 122
-61 222 -74 436 -6 95 -16 204 -22 243 -36 238 -155 392 -346 448 -79 24 -129
56 -148 95 -43 91 45 193 153 178 76 -10 152 -55 233 -136 123 -123 190 -264
212 -449 6 -53 13 -98 14 -100 2 -2 18 6 38 18 84 52 152 164 182 300 33 146
3 351 -74 510 -27 58 -55 95 -117 156 -89 88 -147 122 -309 180 -135 48 -185
78 -205 126 -15 37 -18 39 -63 39 -43 0 -48 -2 -48 -22 0 -39 58 -126 108
-163 26 -19 86 -51 134 -72 l87 -37 -43 -47 c-47 -53 -71 -117 -64 -174 l4
-37 -35 7 c-65 12 -139 7 -179 -14 -111 -57 -170 -178 -138 -284 21 -69 56
-110 130 -148 l64 -33 -30 -35 c-53 -60 -71 -113 -66 -197 3 -67 9 -84 66
-194 78 -151 98 -220 82 -295 -12 -60 -52 -121 -101 -156 -24 -17 -51 -24 -96
-27 -62 -4 -64 -4 -103 36 -65 64 -52 108 43 153 97 45 127 79 127 142 0 51
-19 94 -85 186 -146 208 -237 475 -215 632 20 143 113 240 353 371 l118 65
-43 28 c-107 71 -191 163 -244 267 l-24 48 -61 0 -60 0 48 -92 c30 -58 69
-112 105 -150 32 -32 54 -58 50 -58 -4 0 -57 24 -118 54 -130 64 -219 129
-271 196 l-38 49 -232 1 -232 0 -7 -56 c-7 -60 -1 -175 12 -209 7 -20 7 -20
-15 0 -39 34 -99 133 -121 200 l-22 65 -232 0 -232 0 4 -40 c3 -33 -1 -44 -26
-69 -45 -46 -71 -48 -200 -16 -86 21 -129 26 -173 22 -62 -5 -152 -42 -207
-83 -18 -14 -35 -24 -38 -21 -9 8 86 116 142 162 l56 45 -169 0 -168 0 0 -39
c0 -48 -18 -83 -55 -104 -61 -36 -124 -12 -213 82 l-58 61 -81 0 -80 0 22 -32z
m1488 2 c45 -20 142 -107 195 -174 31 -39 31 -39 7 -32 -14 3 -68 15 -120 25
-117 24 -174 46 -200 79 -27 34 -25 59 9 93 34 34 51 35 109 9z m653 -8 c15
-9 66 -57 116 -107 49 -49 114 -105 146 -124 77 -45 207 -89 289 -97 37 -4 68
-10 68 -14 0 -14 -189 -40 -291 -40 -173 0 -307 45 -408 136 -91 82 -113 156
-64 214 43 52 97 64 144 32z m2423 -80 c0 -4 -13 -33 -28 -65 -24 -50 -28 -68
-24 -122 5 -80 34 -126 102 -160 112 -56 245 -17 332 97 78 101 129 120 186
69 29 -26 33 -35 31 -74 -3 -80 -55 -148 -155 -202 -42 -23 -69 -30 -133 -33
-98 -5 -174 12 -291 67 -113 53 -175 113 -224 216 -59 124 -59 119 2 152 43
23 58 38 78 79 l24 52 51 -35 c27 -19 50 -38 49 -41z m-3624 -107 c37 -19 50
-43 50 -93 0 -51 -38 -85 -118 -108 -155 -43 -216 -78 -307 -175 -30 -33 -55
-55 -55 -50 0 23 44 139 80 211 89 178 241 271 350 215z m3210 -12 c73 -65 44
-154 -96 -302 -99 -104 -145 -175 -175 -267 -12 -38 -25 -76 -27 -84 -3 -8 -9
28 -14 80 -10 113 4 273 32 363 58 188 192 288 280 210z m-3750 -41 c38 -38
54 -101 46 -182 -6 -54 -68 -354 -83 -400 -2 -8 -17 35 -33 95 -15 61 -45 153
-65 205 -60 154 -58 250 9 291 46 28 92 25 126 -9z m1215 -36 c50 -13 124 -37
165 -53 l75 -28 -125 -6 c-151 -8 -221 -23 -367 -83 -121 -50 -181 -58 -233
-31 -33 17 -60 61 -60 99 0 58 86 116 190 130 86 11 266 -3 355 -28z m3732
-85 c46 -47 96 -71 149 -71 34 0 120 29 146 50 l25 19 12 -42 c7 -23 26 -59
43 -80 16 -21 28 -40 27 -42 -2 -1 -35 4 -74 12 -49 10 -109 13 -200 10 -148
-4 -210 -22 -290 -83 -35 -27 -50 -33 -58 -25 -8 8 -5 15 11 27 66 46 131 154
140 231 2 24 9 43 13 43 5 0 30 -22 56 -49z m-1033 -22 c14 -33 67 -123 116
-200 50 -76 90 -140 90 -142 0 -2 -27 -1 -59 1 -33 2 -73 0 -90 -6 -28 -10
-33 -7 -95 51 -64 60 -66 64 -66 112 0 49 56 245 70 245 4 0 19 -27 34 -61z
m-961 13 c141 -95 230 -399 183 -624 -8 -36 -23 -81 -33 -100 l-18 -33 -3 30
c-17 188 -61 280 -218 463 -82 96 -104 134 -104 185 0 38 37 92 74 107 30 13
75 2 119 -28z m-1657 -95 c-42 -26 -106 -91 -130 -130 -13 -23 -40 -89 -60
-146 -43 -123 -68 -166 -106 -186 -37 -19 -63 -19 -100 0 -115 60 -59 237 116
361 86 62 212 113 279 113 20 0 20 0 1 -12z m529 -7 c17 -4 23 -8 14 -9 -9 0
-54 -20 -100 -43 -65 -32 -105 -63 -189 -143 -58 -56 -120 -110 -137 -119
-114 -58 -211 59 -138 166 67 98 227 157 430 156 50 0 104 -4 120 -8z m266
-66 c-63 -65 -111 -144 -165 -272 -19 -46 -47 -99 -62 -119 -51 -67 -140 -80
-190 -26 -90 97 32 285 258 399 62 31 209 86 215 80 1 -1 -24 -29 -56 -62z
m2166 -78 c108 -45 211 -66 314 -66 56 0 119 -27 143 -62 9 -12 16 -41 16 -63
0 -81 -81 -121 -182 -91 -71 21 -196 103 -281 184 -67 65 -134 142 -123 142 3
0 54 -20 113 -44z m1098 -29 c65 -22 195 -89 195 -102 0 -1 -37 -3 -82 -3 -92
1 -161 -15 -295 -66 -48 -19 -116 -40 -149 -47 -58 -12 -64 -11 -110 12 -63
31 -91 81 -74 133 14 44 39 65 102 88 45 16 75 18 193 15 117 -4 153 -9 220
-30z m-4655 -142 c38 -37 47 -82 25 -128 -22 -46 -45 -61 -167 -103 -56 -20
-125 -47 -152 -61 -125 -63 -234 -159 -290 -256 -16 -26 -30 -46 -32 -44 -9 8
27 150 56 224 89 231 300 409 473 400 47 -3 62 -8 87 -32z m3401 -66 c48 -34
62 -72 57 -154 -15 -229 -272 -478 -572 -555 -122 -31 -129 -26 -44 30 86 56
162 134 225 233 55 84 82 144 129 289 44 134 78 178 139 178 21 0 49 -9 66
-21z m284 -88 c115 -80 162 -128 194 -197 40 -84 16 -184 -44 -184 -20 0 -26
7 -35 43 -30 111 -113 187 -205 187 l-33 0 5 73 c5 66 -1 108 -23 162 -7 19
-7 19 13 5 12 -8 70 -48 128 -89z m-2901 57 c-60 -119 -200 -262 -312 -321
-163 -86 -328 -90 -408 -10 -41 41 -52 89 -30 132 29 55 57 62 223 55 121 -5
160 -3 213 10 76 20 206 83 270 131 57 43 65 43 44 3z m3728 -125 c5 -98 12
-115 87 -217 54 -72 70 -121 52 -155 -18 -32 -57 -54 -86 -47 -39 10 -59 51
-66 137 -11 126 -31 147 -217 239 -159 80 -178 92 -168 109 4 6 26 1 59 -14
31 -15 70 -25 98 -25 50 0 198 35 213 50 20 20 24 9 28 -77z m-461 -43 c42
-27 119 -68 170 -90 138 -61 172 -93 172 -163 0 -33 -6 -46 -32 -69 -58 -52
-127 -31 -222 69 -31 33 -72 84 -92 114 -33 52 -97 173 -97 184 0 14 30 1 101
-45z m-2701 23 c1 -42 52 -157 117 -265 102 -168 110 -222 45 -290 -19 -21
-35 -28 -65 -28 -51 0 -95 43 -127 125 -21 51 -24 78 -24 185 0 86 5 150 18
208 17 75 36 108 36 65z m-124 -142 c-21 -128 -43 -196 -77 -232 -56 -60 -129
-21 -119 66 4 33 27 72 89 143 31 37 71 87 87 111 37 56 40 42 20 -88z m-299
95 c24 -21 28 -32 31 -95 3 -44 -4 -116 -17 -193 -11 -68 -22 -141 -23 -163
l-3 -40 -48 77 c-123 196 -150 355 -70 418 36 28 94 26 130 -4z m1054 -16 c41
-30 96 -149 115 -250 12 -62 15 -115 11 -195 -11 -211 -72 -365 -207 -525 -89
-106 -144 -204 -186 -330 -25 -76 -28 -99 -28 -225 0 -152 -4 -138 96 -412 21
-58 22 -65 8 -105 -44 -126 -196 -107 -246 31 -25 72 -29 209 -9 336 18 116
69 308 104 388 25 58 26 58 -114 12 -280 -91 -468 -247 -599 -495 -26 -49 -57
-97 -69 -105 -60 -42 -133 2 -131 80 2 95 103 203 315 335 74 46 166 104 204
130 39 26 122 77 185 115 176 104 258 162 330 234 131 132 192 259 193 400 0
100 -22 174 -88 291 -83 146 -91 184 -57 250 36 68 110 84 173 40z m-2096 -94
c60 -26 83 -101 44 -150 -30 -39 -66 -54 -191 -81 -125 -28 -249 -83 -315
-139 -22 -20 -44 -36 -47 -36 -11 0 27 77 70 142 82 122 234 242 340 267 55
13 61 13 99 -3z m3763 -32 c58 -38 66 -147 19 -241 -77 -151 -256 -266 -482
-308 -49 -9 -101 -19 -115 -21 -20 -4 0 -18 108 -74 73 -38 217 -125 320 -194
103 -68 214 -136 248 -150 67 -27 184 -51 214 -43 29 7 25 -10 -17 -71 -48
-70 -95 -102 -148 -102 -53 0 -66 10 -215 155 -69 67 -152 142 -185 167 -61
46 -208 139 -212 134 -2 -1 13 -42 32 -90 85 -209 113 -440 71 -570 -41 -124
-133 -174 -196 -106 -51 55 -50 100 6 264 45 133 48 147 49 246 0 100 -2 108
-36 180 -64 135 -182 240 -364 326 -53 25 -95 47 -93 49 2 2 26 -1 53 -6 80
-16 281 -13 365 5 149 32 286 120 347 224 14 23 34 70 44 102 27 88 47 120 82
136 35 15 69 11 105 -12z m-3518 -151 c30 -8 74 -13 98 -11 l44 3 -7 -39 c-3
-22 -7 -41 -8 -43 -2 -1 -23 4 -47 11 -25 7 -82 17 -126 21 l-81 7 21 39 c14
27 26 37 36 33 8 -4 40 -13 70 -21z m467 -4 c63 -30 153 -117 209 -201 39 -58
144 -267 144 -286 0 -3 -33 26 -72 65 -97 95 -194 153 -326 195 -83 26 -115
41 -144 69 -60 57 -50 123 26 170 39 25 95 21 163 -12z m3456 -20 c58 -30 73
-98 38 -167 -10 -20 -45 -62 -77 -92 -144 -136 -319 -201 -536 -199 -57 1
-116 5 -133 8 -28 7 -26 8 28 20 32 7 95 31 140 53 72 36 100 59 236 195 187
187 236 217 304 182z m435 -110 c27 -17 68 -33 90 -36 l40 -5 -14 -42 c-8 -22
-17 -47 -19 -55 -4 -11 -10 -10 -28 7 -59 56 -179 72 -252 34 -70 -36 -104
-79 -120 -149 l-7 -33 -71 0 -72 0 34 27 c50 40 118 137 137 197 l17 53 66 -4
c52 -3 73 0 101 15 46 26 42 26 98 -9z m-3351 -60 c48 -18 73 -50 95 -124 11
-38 30 -88 40 -109 31 -61 107 -135 173 -169 50 -25 72 -30 135 -31 41 -1 89
2 105 7 l30 7 -30 -25 c-37 -31 -122 -64 -197 -76 -72 -12 -176 8 -251 48 -71
38 -166 136 -200 205 -58 121 -54 211 12 255 38 26 48 27 88 12z m-635 -130
c73 -52 103 -120 95 -212 -12 -135 -154 -253 -262 -217 -36 12 -85 69 -85 100
0 35 40 77 109 115 97 53 125 86 118 141 -2 23 -15 57 -27 74 l-23 32 24 -7
c13 -4 36 -16 51 -26z m1984 -38 c57 -52 142 -104 319 -194 174 -89 265 -175
265 -249 0 -36 -37 -88 -74 -103 -60 -25 -119 2 -269 126 -145 120 -255 276
-290 412 -8 31 -13 57 -10 57 3 0 29 -22 59 -49z m-326 -147 c0 -87 79 -299
149 -402 110 -163 119 -262 27 -306 -72 -34 -159 21 -210 135 -61 134 -61 292
1 557 17 72 33 80 33 16z m-2191 10 c139 -41 196 -131 141 -221 -49 -81 -124
-81 -290 0 -63 31 -146 64 -185 73 -81 19 -195 15 -265 -10 -53 -18 -61 -14
-29 14 90 79 225 139 359 160 73 12 203 4 269 -16z m4216 -44 c68 -64 21 -164
-97 -206 -50 -17 -158 -18 -229 -2 -29 7 -114 42 -188 78 l-135 66 124 0 c122
0 128 2 265 47 159 53 217 57 260 17z m-3314 -33 c19 -13 66 -55 104 -93 43
-43 93 -80 129 -98 69 -33 203 -60 264 -52 69 9 48 -10 -45 -40 -79 -26 -101
-29 -223 -29 -135 0 -135 0 -210 36 -156 75 -224 197 -151 270 37 36 84 39
132 6z m3569 -179 c0 -4 -19 -17 -42 -29 -24 -12 -62 -35 -86 -51 -42 -29 -44
-29 -77 -14 -18 9 -39 16 -46 16 -8 0 -2 7 11 17 44 29 88 75 100 104 l12 28
64 -32 c35 -17 64 -35 64 -39z m-2451 -52 c-21 -133 -9 -240 46 -405 47 -139
48 -144 34 -184 -19 -55 -70 -91 -119 -83 -163 26 -197 323 -67 581 36 72 107
179 114 172 2 -3 -1 -39 -8 -81z m-2953 -5 c36 -22 59 -78 49 -119 -3 -15 -30
-79 -60 -142 -29 -63 -58 -142 -64 -174 -13 -68 -13 -189 -2 -258 4 -27 5 -48
1 -48 -15 0 -105 166 -133 247 -27 76 -31 102 -31 193 -1 76 4 119 17 157 46
132 141 194 223 144z m5790 -4 c-10 -7 -39 -25 -65 -42 -25 -16 -91 -75 -146
-131 -55 -56 -110 -107 -122 -113 -71 -36 -153 12 -153 90 0 36 6 48 43 84 26
26 64 50 102 64 57 22 265 59 330 60 27 0 28 -1 11 -12z m-4125 -72 c159 -91
184 -99 331 -99 71 -1 128 -2 128 -3 0 -8 -131 -78 -192 -102 -150 -61 -293
-62 -414 -5 -95 45 -152 135 -128 203 5 14 25 36 44 49 53 36 109 26 231 -43z
m2694 12 c110 -155 203 -231 358 -291 70 -27 104 -46 126 -72 41 -46 42 -92 2
-136 -26 -29 -34 -32 -82 -32 -41 0 -67 7 -108 29 -145 79 -250 228 -311 441
-10 34 -21 71 -25 83 -10 34 8 24 40 -22z m-3146 8 c92 -78 45 -240 -119 -406
-72 -73 -175 -149 -203 -149 -4 0 10 33 32 73 46 84 67 155 76 252 4 39 13 95
22 125 30 113 123 163 192 105z m3948 -85 c47 -28 60 -81 44 -173 -26 -144
-29 -180 -20 -239 12 -72 46 -144 97 -200 42 -47 32 -46 -63 7 -74 41 -153
123 -190 195 -50 98 -69 254 -41 333 32 88 103 120 173 77z m-1250 -80 c52 0
51 15 11 -137 -24 -92 -38 -109 -38 -49 0 53 -43 130 -86 156 -22 13 -41 25
-43 27 -3 2 4 9 14 17 16 12 25 12 58 0 22 -8 60 -14 84 -14z m-409 -61 c-36
-30 -48 -24 -48 22 0 26 1 26 41 15 l40 -10 -33 -27z m-1008 6 c0 -2 -13 -26
-28 -52 -16 -26 -63 -118 -105 -203 -42 -85 -91 -172 -109 -192 -64 -73 -149
-80 -188 -15 -26 42 -25 71 4 132 40 85 147 178 329 286 77 46 97 55 97 44z
m1262 -73 c60 -59 41 -150 -39 -190 -21 -11 -93 -32 -160 -46 -68 -15 -176
-47 -241 -71 -66 -24 -139 -49 -163 -55 -24 -6 -52 -14 -62 -16 -15 -5 -13 3
12 48 21 36 33 75 37 115 l7 61 33 -14 c52 -22 131 -17 189 10 28 13 82 51
120 85 131 116 205 136 267 73z m-3207 -45 c79 -79 58 -149 -93 -319 -37 -42
-80 -98 -95 -125 -28 -53 -72 -199 -82 -278 -6 -40 -9 -46 -17 -31 -21 38 -48
204 -48 301 0 165 45 301 132 400 83 94 145 110 203 52z m1055 -25 c41 -22 73
-76 65 -112 -3 -14 -18 -36 -32 -49 -24 -21 -33 -23 -92 -17 -37 3 -88 10
-116 15 -60 12 -202 13 -267 2 -27 -4 -48 -5 -48 -2 0 10 91 76 154 111 120
68 263 90 336 52z m2775 -39 c15 -68 70 -192 111 -250 27 -38 76 -86 123 -122
119 -91 152 -137 137 -197 -4 -14 -17 -36 -31 -49 -54 -55 -130 -41 -211 39
-106 107 -156 260 -153 476 1 122 11 165 24 103z m-436 -216 c44 -148 50 -235
25 -355 -31 -152 -110 -252 -199 -252 -95 0 -131 118 -73 235 11 22 50 87 86
145 60 95 122 238 122 283 0 39 18 13 39 -56z m-159 35 c0 -5 -6 -17 -14 -28
-12 -15 -17 -17 -27 -7 -10 10 -9 16 7 28 21 16 34 19 34 7z m430 -36 c0 -2
-11 -29 -25 -61 -66 -149 -76 -318 -31 -539 30 -147 31 -221 3 -302 l-14 -38
-12 50 c-27 109 -94 162 -216 171 -41 3 -75 9 -75 12 0 4 15 12 33 19 85 31
151 128 183 269 13 60 16 107 12 227 -3 83 -9 158 -12 167 -6 14 0 16 41 12
26 -3 59 0 73 6 27 11 40 13 40 7z m463 -18 c28 -10 36 -31 16 -44 -6 -3 -28
10 -48 31 -25 26 -30 35 -16 30 11 -4 32 -12 48 -17z m290 -14 c18 -9 60 -37
94 -61 135 -96 242 -128 528 -159 69 -7 61 -15 -40 -39 -106 -24 -261 -45
-345 -45 -179 0 -347 69 -396 162 -18 35 -18 62 1 98 29 56 98 75 158 44z
m-1378 -4 c22 0 72 -48 77 -74 11 -58 -44 -120 -137 -155 -162 -61 -427 -20
-592 92 -60 40 -83 67 -45 52 109 -43 298 -44 425 -1 43 14 88 33 101 41 34
23 129 55 144 50 8 -3 20 -5 27 -5z m-1628 -152 c-17 -225 -128 -427 -269
-493 -92 -43 -162 -25 -193 48 -28 67 18 128 140 188 129 65 215 149 285 281
17 32 34 58 37 58 3 0 3 -37 0 -82z m432 -58 c10 -30 22 -64 26 -74 8 -18 5
-19 -54 -13 -65 7 -131 31 -181 67 -36 25 -38 40 -7 40 37 1 100 35 142 79
l40 42 8 -43 c5 -24 16 -68 26 -98z m1896 47 c19 -93 51 -160 118 -251 89
-119 105 -168 67 -206 -68 -68 -168 -2 -222 148 -28 78 -31 242 -5 326 10 32
20 56 23 53 3 -3 11 -34 19 -70z m-3184 -81 c125 -27 221 -92 264 -181 32 -65
28 -94 -17 -137 -25 -23 -39 -28 -80 -28 -47 0 -52 3 -96 51 -136 150 -167
179 -220 207 -31 17 -78 36 -104 42 -27 7 -48 16 -48 20 0 13 118 38 180 39
30 0 85 -6 121 -13z m964 -86 c10 -30 38 -89 62 -131 55 -95 64 -138 33 -169
-38 -38 -93 -12 -133 65 -18 32 -22 57 -22 130 1 91 20 185 34 169 5 -5 17
-34 26 -64z m1217 -10 c80 -24 128 -68 128 -115 0 -37 -22 -65 -50 -65 -11 0
-46 30 -81 69 -34 38 -83 81 -110 96 -27 14 -49 28 -49 31 0 12 106 2 162 -16z
m-1070 -18 c26 -13 88 -32 138 -43 49 -10 108 -26 130 -35 48 -19 90 -66 90
-101 0 -55 -59 -113 -114 -113 -65 0 -172 86 -241 195 -39 60 -72 130 -58 123
4 -2 29 -14 55 -26z m1356 -61 c-1 -187 78 -279 295 -346 142 -44 183 -87 153
-159 -18 -44 -53 -59 -124 -54 -111 8 -222 85 -303 211 -85 132 -105 311 -44
403 8 13 17 24 20 24 2 0 4 -36 3 -79z m-508 37 c162 -74 257 -265 221 -441
-16 -77 -29 -102 -81 -152 -36 -35 -47 -40 -86 -40 -39 0 -50 5 -75 33 -40 44
-38 90 6 191 42 94 46 162 15 243 -32 86 -144 177 -217 178 -13 0 -23 5 -23
11 0 8 28 10 93 7 70 -4 105 -11 147 -30z m-2255 -17 c42 -23 91 -100 115
-179 28 -90 28 -238 1 -342 -17 -69 -65 -190 -74 -190 -2 0 -3 42 -3 93 1 138
-40 242 -144 367 -50 60 -80 118 -80 155 0 41 31 88 71 108 37 19 67 15 114
-12z m4609 -43 c-90 -96 -135 -167 -212 -339 -45 -99 -72 -129 -118 -129 -76
0 -121 51 -110 126 15 111 115 228 256 299 61 31 210 94 224 95 5 0 -13 -24
-40 -52z m-304 17 c0 -2 -19 -14 -42 -26 -80 -40 -137 -90 -227 -198 -114
-136 -161 -162 -231 -126 -32 16 -60 61 -60 95 0 100 133 201 316 240 80 17
244 27 244 15z m-2224 -70 c68 -28 82 -131 30 -219 -122 -207 -380 -255 -648
-120 -36 18 -69 38 -73 44 -8 13 -8 13 40 -5 53 -19 159 -19 222 0 67 20 160
89 214 160 75 99 103 127 134 141 38 17 39 17 81 -1z m-1815 -101 l31 -46 -25
-25 -24 -25 -7 49 c-4 26 -10 58 -13 71 -8 34 3 27 38 -24z m2393 -98 c10 -44
42 -122 76 -189 73 -141 81 -179 48 -227 -68 -101 -181 -66 -208 65 -13 63 -2
179 30 330 11 49 20 90 20 92 0 2 4 3 8 3 5 0 16 -33 26 -74z m-1443 -59 c89
-232 92 -412 8 -493 -74 -71 -180 2 -166 115 3 25 25 102 47 170 33 97 43 145
47 218 7 112 17 111 64 -10z m-176 -3 c-3 -18 -24 -69 -46 -114 -74 -147 -215
-258 -302 -236 -41 10 -86 54 -93 90 -13 74 40 120 206 177 88 30 100 37 165
103 70 71 70 71 73 42 2 -16 1 -44 -3 -62z m-525 41 c35 -18 50 -43 50 -85 0
-66 -33 -102 -178 -192 -62 -38 -148 -96 -192 -129 -44 -32 -82 -59 -84 -59
-8 0 111 254 145 310 92 153 172 200 259 155z m3027 -125 c24 -59 27 -77 28
-190 0 -116 -2 -129 -27 -183 -41 -86 -111 -109 -143 -46 -26 48 -18 104 26
202 47 104 63 186 54 272 l-6 60 20 -25 c11 -14 33 -54 48 -90z m541 -93 c1
-156 -1 -188 -16 -217 -15 -31 -21 -35 -57 -35 -34 0 -43 5 -63 35 -48 70 -15
196 90 340 24 33 43 60 43 60 1 0 2 -82 3 -183z m-4227 123 c66 -70 87 -205
54 -350 -16 -70 -124 -299 -152 -321 -15 -13 -16 -11 -9 21 27 132 15 257 -40
433 -37 120 -42 163 -19 207 19 37 41 49 89 50 33 0 45 -6 77 -40z m1536 -87
c101 -77 259 -133 378 -133 73 0 179 25 252 59 58 28 63 28 63 11 0 -10 16
-55 35 -99 31 -70 35 -89 35 -165 0 -48 -4 -86 -10 -86 -5 0 -26 21 -47 47
-102 127 -181 177 -284 178 -59 0 -72 -4 -126 -37 -82 -51 -133 -52 -195 -5
-51 39 -99 107 -126 180 -11 28 -23 60 -27 70 -10 25 -1 21 52 -20z m1903
-188 c-11 -31 -24 -81 -30 -112 -11 -63 -20 -73 -66 -73 l-32 0 -5 68 c-3 37
-8 77 -12 89 -6 18 -2 22 27 28 18 4 53 18 78 31 25 13 48 23 52 24 4 0 -2
-25 -12 -55z m-2792 3 c5 -18 8 -34 7 -36 -4 -5 -95 11 -95 17 0 7 61 49 72
50 4 1 11 -14 16 -31z m56 -151 c88 -41 114 -121 57 -178 -41 -41 -94 -39
-229 8 -100 35 -115 38 -217 37 -83 0 -125 -6 -172 -21 -35 -12 -63 -19 -63
-17 0 11 139 99 211 134 156 75 302 88 413 37z m624 -160 c6 -6 13 -24 17 -38
6 -25 6 -25 -52 -25 -32 1 -69 -3 -81 -7 -22 -8 -23 -7 -17 15 13 42 45 68 86
68 20 0 41 -6 47 -13z"/>
<path d="M3520 4374 c82 -96 175 -230 227 -326 l27 -50 22 108 c29 150 66 235
144 337 l22 27 -65 0 -64 0 -32 -70 c-17 -39 -31 -75 -31 -80 0 -6 -3 -10 -8
-10 -4 0 -6 36 -4 80 l4 80 -37 0 -38 0 6 -87 c6 -72 4 -85 -6 -70 -6 11 -32
49 -57 85 l-45 67 -73 3 -74 3 82 -97z"/>
<path d="M6230 2228 c-79 -128 -95 -297 -44 -468 14 -50 59 -140 69 -140 2 0
4 144 5 320 0 176 -2 320 -5 320 -3 0 -14 -15 -25 -32z"/>
<path d="M0 1292 l0 -79 65 -6 c35 -3 104 -19 152 -36 49 -16 89 -28 91 -26 1
1 -31 34 -72 72 -47 44 -106 86 -156 112 l-80 42 0 -79z"/>
<path d="M0 1047 l0 -53 55 -18 c107 -34 244 -143 325 -261 35 -51 120 -205
114 -205 -3 0 -38 25 -77 56 -93 73 -205 128 -320 159 -51 14 -93 25 -95 25
-1 0 -1 -39 0 -87 l3 -88 65 -7 c194 -19 384 -108 515 -242 l61 -62 -7 56
c-34 271 -197 542 -409 679 -57 37 -196 101 -219 101 -7 0 -11 -22 -11 -53z"/>
<path d="M6094 375 c-95 -17 -138 -31 -205 -68 l-57 -30 87 -86 c58 -57 96
-104 112 -138 l24 -52 68 -1 c37 0 67 3 67 8 0 17 -61 110 -99 151 -23 24 -40
46 -38 47 6 6 132 -57 164 -82 17 -13 34 -24 37 -24 8 0 8 84 0 105 -8 19 -57
41 -143 65 -76 20 -64 27 67 37 l83 6 -3 36 c-3 35 -4 36 -48 38 -25 1 -77 -4
-116 -12z"/>
<path d="M0 160 c0 -48 3 -53 55 -105 l55 -55 77 0 77 0 -54 56 c-53 54 -184
154 -202 154 -4 0 -8 -23 -8 -50z"/>
</g>
</svg>
